<?xml version="1.0" encoding="UTF-8"?>
<svg xmlns="http://www.w3.org/2000/svg" style="background: transparent;" xmlns:xlink="http://www.w3.org/1999/xlink" version="1.1" width="800px" height="600px" viewBox="-0.5 -0.5 800 600">
<defs/>
<g>
  <!-- 联通专线 -->
  <rect id="cell-unicom_wan" x="350" y="50" width="120" height="60" rx="9" ry="9" fill="#4CAF50" stroke="#2E7D32" pointer-events="all"/>
  <text x="410" y="85" text-anchor="middle" fill="white" font-weight="bold" font-size="12px" font-family="Helvetica">🌐 联通专线</text>
  
  <!-- AF防火墙 -->
  <rect id="cell-af_firewall" x="350" y="150" width="120" height="60" rx="9" ry="9" fill="#FF6B6B" stroke="#D32F2F" pointer-events="all"/>
  <text x="410" y="185" text-anchor="middle" fill="white" font-weight="bold" font-size="12px" font-family="Helvetica">🔒 AF防火墙</text>
  
  <!-- AC控制器 -->
  <rect id="cell-ac_controller" x="350" y="250" width="120" height="60" rx="9" ry="9" fill="#4ECDC4" stroke="#009688" pointer-events="all"/>
  <text x="410" y="285" text-anchor="middle" fill="white" font-weight="bold" font-size="12px" font-family="Helvetica">📡 AC控制器</text>
  
  <!-- 核心交换机 -->
  <rect id="cell-core_switch" x="350" y="350" width="120" height="60" rx="9" ry="9" fill="#45B7D1" stroke="#0288D1" pointer-events="all"/>
  <text x="410" y="385" text-anchor="middle" fill="white" font-weight="bold" font-size="12px" font-family="Helvetica">🔗 核心交换机</text>
  
  <!-- AP接入点 -->
  <rect id="cell-ap_access" x="200" y="450" width="120" height="60" rx="9" ry="9" fill="#96CEB4" stroke="#388E3C" pointer-events="all"/>
  <text x="260" y="485" text-anchor="middle" fill="white" font-weight="bold" font-size="12px" font-family="Helvetica">📶 AP接入点</text>
  
  <!-- 服务器池 -->
  <rect id="cell-server_pool" x="500" y="450" width="120" height="60" rx="9" ry="9" fill="#FFEAA7" stroke="#F57C00" pointer-events="all"/>
  <text x="560" y="485" text-anchor="middle" fill="#333" font-weight="bold" font-size="12px" font-family="Helvetica">🖥️ 服务器池</text>
  
  <!-- 连接线 -->
  <path id="cell-line1" d="M 410 110 L 410 150" fill="none" stroke="#666" stroke-width="2" pointer-events="stroke"/>
  <path id="cell-line2" d="M 410 210 L 410 250" fill="none" stroke="#666" stroke-width="2" pointer-events="stroke"/>
  <path id="cell-line3" d="M 410 310 L 410 350" fill="none" stroke="#666" stroke-width="2" pointer-events="stroke"/>
  <path id="cell-line4" d="M 410 410 L 260 450" fill="none" stroke="#666" stroke-width="2" pointer-events="stroke"/>
  <path id="cell-line5" d="M 410 410 L 560 450" fill="none" stroke="#666" stroke-width="2" pointer-events="stroke"/>
</g>
</svg>
